<svg width="20" height="14" viewBox="0 0 20 14" fill="none" xmlns="http://www.w3.org/2000/svg">
<path d="M2.66667 13.3636V14H4V13.3636H2.66667ZM9.33333 13.3636V14H10.6667V13.3636H9.33333ZM4 13.3636V12.7273H2.66667V13.3636H4ZM9.33333 12.7273V13.3636H10.6667V12.7273H9.33333ZM6.66667 10.1818C7.37391 10.1818 8.05219 10.45 8.55229 10.9274C9.05238 11.4047 9.33333 12.0522 9.33333 12.7273H10.6667C10.6667 11.7146 10.2452 10.7435 9.49509 10.0274C8.74495 9.31136 7.72753 8.90909 6.66667 8.90909V10.1818ZM4 12.7273C4 12.0522 4.28095 11.4047 4.78105 10.9274C5.28115 10.45 5.95942 10.1818 6.66667 10.1818V8.90909C5.6058 8.90909 4.58839 9.31136 3.83824 10.0274C3.08809 10.7435 2.66667 11.7146 2.66667 12.7273H4ZM6.66667 2.54545C5.95942 2.54545 5.28115 2.81364 4.78105 3.291C4.28095 3.76837 4 4.41581 4 5.09091H5.33333C5.33333 4.75336 5.47381 4.42964 5.72386 4.19096C5.97391 3.95227 6.31305 3.81818 6.66667 3.81818V2.54545ZM9.33333 5.09091C9.33333 4.41581 9.05238 3.76837 8.55229 3.291C8.05219 2.81364 7.37391 2.54545 6.66667 2.54545V3.81818C7.02029 3.81818 7.35943 3.95227 7.60948 4.19096C7.85952 4.42964 8 4.75336 8 5.09091H9.33333ZM6.66667 7.63636C7.37391 7.63636 8.05219 7.36818 8.55229 6.89082C9.05238 6.41345 9.33333 5.76601 9.33333 5.09091H8C8 5.42846 7.85952 5.75218 7.60948 5.99086C7.35943 6.22955 7.02029 6.36364 6.66667 6.36364V7.63636ZM6.66667 6.36364C6.31305 6.36364 5.97391 6.22955 5.72386 5.99086C5.47381 5.75218 5.33333 5.42846 5.33333 5.09091H4C4 5.76601 4.28095 6.41345 4.78105 6.89082C5.28115 7.36818 5.95942 7.63636 6.66667 7.63636V6.36364ZM2 1.27273H18V0H2V1.27273ZM18.6667 1.90909V12.0909H20V1.90909H18.6667ZM18 12.7273H2V14H18V12.7273ZM1.33333 12.0909V1.90909H0V12.0909H1.33333ZM2 12.7273C1.82319 12.7273 1.65362 12.6602 1.5286 12.5409C1.40357 12.4215 1.33333 12.2597 1.33333 12.0909H0C0 12.5972 0.210714 13.0828 0.585786 13.4408C0.960859 13.7989 1.46957 14 2 14V12.7273ZM18.6667 12.0909C18.6667 12.2597 18.5964 12.4215 18.4714 12.5409C18.3464 12.6602 18.1768 12.7273 18 12.7273V14C18.5304 14 19.0391 13.7989 19.4142 13.4408C19.7893 13.0828 20 12.5972 20 12.0909H18.6667ZM18 1.27273C18.1768 1.27273 18.3464 1.33977 18.4714 1.45911C18.5964 1.57846 18.6667 1.74032 18.6667 1.90909H20C20 1.40277 19.7893 0.917184 19.4142 0.55916C19.0391 0.201136 18.5304 0 18 0V1.27273ZM2 0C1.46957 0 0.960859 0.201136 0.585786 0.55916C0.210714 0.917184 0 1.40277 0 1.90909H1.33333C1.33333 1.74032 1.40357 1.57846 1.5286 1.45911C1.65362 1.33977 1.82319 1.27273 2 1.27273V0ZM12 5.09091H16V3.81818H12V5.09091ZM12 8.90909H16V7.63636H12V8.90909Z" fill="#00C4FF"/>
</svg>
