<svg width="199" height="199" viewBox="0 0 199 199" fill="none" xmlns="http://www.w3.org/2000/svg">
<g clip-path="url(#clip0_226_2013)">
<path fill-rule="evenodd" clip-rule="evenodd" d="M199 99.5C199 125.889 188.517 151.197 169.857 169.857C151.197 188.517 125.889 199 99.5 199C73.111 199 47.8027 188.517 29.1429 169.857C10.483 151.197 0 125.889 0 99.5C0 73.111 10.483 47.8027 29.1429 29.1429C47.8027 10.483 73.111 0 99.5 0C125.889 0 151.197 10.483 169.857 29.1429C188.517 47.8027 199 73.111 199 99.5ZM82.9167 49.75C82.9167 45.3518 84.6638 41.1338 87.7738 38.0238C90.8838 34.9138 95.1018 33.1667 99.5 33.1667C103.898 33.1667 108.116 34.9138 111.226 38.0238C114.336 41.1338 116.083 45.3518 116.083 49.75V99.5C116.083 103.898 114.336 108.116 111.226 111.226C108.116 114.336 103.898 116.083 99.5 116.083C95.1018 116.083 90.8838 114.336 87.7738 111.226C84.6638 108.116 82.9167 103.898 82.9167 99.5V49.75ZM99.5 132.667C95.1018 132.667 90.8838 134.414 87.7738 137.524C84.6638 140.634 82.9167 144.852 82.9167 149.25C82.9167 153.648 84.6638 157.866 87.7738 160.976C90.8838 164.086 95.1018 165.833 99.5 165.833C103.898 165.833 108.116 164.086 111.226 160.976C114.336 157.866 116.083 153.648 116.083 149.25C116.083 144.852 114.336 140.634 111.226 137.524C108.116 134.414 103.898 132.667 99.5 132.667Z" fill="#F24822"/>
</g>
<defs>
<clipPath id="clip0_226_2013">
<rect width="199" height="199" fill="white"/>
</clipPath>
</defs>
</svg>
