<svg width="85" height="63" viewBox="0 0 85 63" fill="none" xmlns="http://www.w3.org/2000/svg">
<path d="M46.9584 26.9585C49.4894 23.4221 50.8503 19.1823 50.8503 14.8335C50.8503 10.4847 49.4894 6.24489 46.9584 2.70849C49.3283 1.09403 52.1325 0.236815 55 0.250153C58.8678 0.250153 62.5771 1.78661 65.312 4.52151C68.0469 7.25642 69.5834 10.9657 69.5834 14.8335C69.5834 18.7012 68.0469 22.4106 65.312 25.1455C62.5771 27.8804 58.8678 29.4168 55 29.4168C52.1325 29.4302 49.3283 28.5729 46.9584 26.9585ZM15.4167 14.8335C15.4167 11.9492 16.272 9.12964 17.8744 6.73142C19.4769 4.3332 21.7545 2.46402 24.4192 1.36024C27.084 0.256466 30.0162 -0.0323325 32.8451 0.530369C35.674 1.09307 38.2725 2.482 40.312 4.52151C42.3515 6.56103 43.7405 9.15953 44.3032 11.9884C44.8659 14.8173 44.5771 17.7495 43.4733 20.4143C42.3695 23.079 40.5003 25.3566 38.1021 26.9591C35.7039 28.5615 32.8843 29.4168 30 29.4168C26.1323 29.4168 22.423 27.8804 19.6881 25.1455C16.9532 22.4106 15.4167 18.7012 15.4167 14.8335ZM23.75 14.8335C23.75 16.0696 24.1166 17.278 24.8034 18.3058C25.4901 19.3336 26.4662 20.1347 27.6083 20.6077C28.7503 21.0808 30.007 21.2046 31.2194 20.9634C32.4317 20.7222 33.5454 20.127 34.4195 19.2529C35.2935 18.3788 35.8888 17.2652 36.1299 16.0528C36.3711 14.8404 36.2473 13.5838 35.7743 12.4417C35.3012 11.2997 34.5002 10.3236 33.4724 9.6368C32.4445 8.95004 31.2362 8.58349 30 8.58349C28.3424 8.58349 26.7527 9.24197 25.5806 10.4141C24.4085 11.5862 23.75 13.1759 23.75 14.8335ZM59.1667 54.4168V62.7502H0.833374V54.4168C0.833374 54.4168 0.833374 37.7502 30 37.7502C59.1667 37.7502 59.1667 54.4168 59.1667 54.4168ZM50.8334 54.4168C50.25 51.1668 45.2917 46.0835 30 46.0835C14.7084 46.0835 9.45837 51.5418 9.16671 54.4168M58.9584 37.7502C61.5122 39.7365 63.6002 42.2579 65.0758 45.1371C66.5514 48.0164 67.3789 51.1837 67.5 54.4168V62.7502H84.1667V54.4168C84.1667 54.4168 84.1667 39.2918 58.9167 37.7502H58.9584Z" fill="#4EFC00"/>
</svg>
