<svg width="67" height="67" viewBox="0 0 67 67" fill="none" xmlns="http://www.w3.org/2000/svg">
<path d="M33.5 33.4998C28.9167 33.4998 24.9931 31.8679 21.7292 28.604C18.4653 25.3401 16.8334 21.4165 16.8334 16.8332C16.8334 12.2498 18.4653 8.32623 21.7292 5.06234C24.9931 1.79845 28.9167 0.166504 33.5 0.166504C38.0834 0.166504 42.007 1.79845 45.2709 5.06234C48.5347 8.32623 50.1667 12.2498 50.1667 16.8332C50.1667 21.4165 48.5347 25.3401 45.2709 28.604C42.007 31.8679 38.0834 33.4998 33.5 33.4998ZM0.166687 66.8332V55.1665C0.166687 52.8054 0.775021 50.6359 1.99169 48.6582C3.20835 46.6804 4.82224 45.1693 6.83335 44.1248C11.1389 41.9721 15.5139 40.3582 19.9584 39.2832C24.4028 38.2082 28.9167 37.6693 33.5 37.6665C38.0834 37.6637 42.5972 38.2026 47.0417 39.2832C51.4861 40.3637 55.8611 41.9776 60.1667 44.1248C62.1806 45.1665 63.7958 46.6776 65.0125 48.6582C66.2292 50.6387 66.8361 52.8082 66.8334 55.1665V66.8332H0.166687ZM8.50002 58.4998H58.5V55.1665C58.5 54.4026 58.3097 53.7082 57.9292 53.0832C57.5486 52.4582 57.0445 51.9721 56.4167 51.6248C52.6667 49.7498 48.882 48.3443 45.0625 47.4082C41.2431 46.4721 37.3889 46.0026 33.5 45.9998C29.6111 45.9971 25.757 46.4665 21.9375 47.4082C18.1181 48.3498 14.3334 49.7554 10.5834 51.6248C9.95835 51.9721 9.45419 52.4582 9.07085 53.0832C8.68752 53.7082 8.49724 54.4026 8.50002 55.1665V58.4998ZM33.5 25.1665C35.7917 25.1665 37.7542 24.3512 39.3875 22.7207C41.0209 21.0901 41.8361 19.1276 41.8334 16.8332C41.8306 14.5387 41.0153 12.5776 39.3875 10.9498C37.7597 9.32206 35.7972 8.50539 33.5 8.49984C31.2028 8.49428 29.2417 9.31095 27.6167 10.9498C25.9917 12.5887 25.175 14.5498 25.1667 16.8332C25.1584 19.1165 25.975 21.079 27.6167 22.7207C29.2584 24.3623 31.2195 25.1776 33.5 25.1665Z" fill="#4EFC00"/>
</svg>
